<svg xmlns="http://www.w3.org/2000/svg" width="105.091" height="105.081" viewBox="0 0 105.091 105.081">
  <g id="circle" transform="translate(-1.035 -1.032)">
    <text id="I" transform="translate(8.279 39.217) rotate(-70.6)" font-size="6" font-family="MyriadPro-Regular, Myriad Pro"><tspan x="0" y="0">I</tspan></text>
    <text id="N" transform="matrix(0.451, -0.892, 0.892, 0.451, 10.139, 36.46)" font-size="8" font-family="MyriadPro-Regular, Myriad Pro"><tspan x="0" y="0">N</tspan></text>
    <text id="G" transform="matrix(0.604, -0.797, 0.797, 0.604, 14.031, 28.788)" font-size="8" font-family="MyriadPro-Regular, Myriad Pro"><tspan x="0" y="0">G</tspan></text>
    <text id="L" transform="matrix(0.722, -0.692, 0.692, 0.722, 18.503, 21.42)" font-size="7" font-family="MyriadPro-Regular, Myriad Pro"><tspan x="0" y="0">L</tspan></text>
    <text id="E" transform="translate(23.057 17.046) rotate(-36.19)" font-size="7" font-family="MyriadPro-Regular, Myriad Pro"><tspan x="0" y="0">E</tspan></text>
    <text id="T" transform="translate(28.556 13.071) rotate(-27.99)" font-size="7" font-family="MyriadPro-Regular, Myriad Pro"><tspan x="0" y="0">T</tspan></text>
    <text id="E-2" data-name="E" transform="translate(34.442 9.974) rotate(-19.98)" font-size="7" font-family="MyriadPro-Regular, Myriad Pro"><tspan x="0" y="0">E</tspan></text>
    <text id="C" transform="translate(40.85 8.68) rotate(-11.29)" font-size="8" font-family="MyriadPro-Regular, Myriad Pro"><tspan x="0" y="0">C</tspan></text>
    <text id="H" transform="matrix(1, -0.024, 0.024, 1, 48.314, 7.177)" font-size="8" font-family="MyriadPro-Regular, Myriad Pro"><tspan x="0" y="0">H</tspan></text>
    <text id="E-3" data-name="E" transform="matrix(0.912, 0.411, -0.411, 0.912, 70.23, 8.939)" font-size="7" font-family="MyriadPro-Regular, Myriad Pro"><tspan x="0" y="0">E</tspan></text>
    <text id="W" transform="translate(58.981 8.054) rotate(13.4)" font-size="9" font-family="MyriadPro-Regular, Myriad Pro"><tspan x="0" y="0">W</tspan></text>
    <text id="B" transform="matrix(0.843, 0.538, -0.538, 0.843, 75.703, 12.488)" font-size="8" font-family="MyriadPro-Regular, Myriad Pro"><tspan x="0" y="0">B</tspan></text>
    <text id="D" transform="translate(83.916 18.041) rotate(45.64)" font-size="8" font-family="MyriadPro-Regular, Myriad Pro"><tspan x="0" y="0">D</tspan></text>
    <text id="E-4" data-name="E" transform="matrix(0.575, 0.818, -0.818, 0.575, 90.713, 23.729)" font-size="7" font-family="MyriadPro-Regular, Myriad Pro"><tspan x="0" y="0">E</tspan></text>
    <text id="V" transform="matrix(0.451, 0.892, -0.892, 0.451, 92.78, 30.111)" font-size="9" font-family="MyriadPro-Regular, Myriad Pro"><tspan x="0" y="0">V</tspan></text>
    <text id="E-5" data-name="E" transform="translate(97.845 35.927) rotate(71.928)" font-size="7" font-family="MyriadPro-Regular, Myriad Pro"><tspan x="0" y="0">E</tspan></text>
    <text id="L-2" data-name="L" transform="matrix(0.177, 0.984, -0.984, 0.177, 99.847, 42.163)" font-size="7" font-family="MyriadPro-Regular, Myriad Pro"><tspan x="0" y="0">L</tspan></text>
    <text id="O" transform="translate(100.994 47.921) rotate(88.46)" font-size="7" font-family="MyriadPro-Regular, Myriad Pro"><tspan x="0" y="0">O</tspan></text>
    <text id="P" transform="matrix(-0.142, 0.99, -0.99, -0.142, 100.128, 56.926)" font-size="8" font-family="MyriadPro-Regular, Myriad Pro"><tspan x="0" y="0">P</tspan></text>
    <text id="E-6" data-name="E" transform="translate(96.603 74.087) rotate(119.389)" font-size="7" font-family="MyriadPro-Regular, Myriad Pro"><tspan x="0" y="0">E</tspan></text>
    <text id="N-2" data-name="N" transform="matrix(-0.622, 0.783, -0.783, -0.622, 92.613, 79.284)" font-size="8" font-family="MyriadPro-Regular, Myriad Pro"><tspan x="0" y="0">N</tspan></text>
    <text id="T-2" data-name="T" transform="translate(87.866 86.663) rotate(137.842)" font-size="7" font-family="MyriadPro-Regular, Myriad Pro"><tspan x="0" y="0">T</tspan></text>
    <text id="C-2" data-name="C" transform="translate(80.154 91.96) rotate(149.8)" font-size="8" font-family="MyriadPro-Regular, Myriad Pro"><tspan x="0" y="0">C</tspan></text>
    <text id="O-2" data-name="O" transform="matrix(-0.938, 0.347, -0.347, -0.938, 74.176, 96.651)" font-size="7" font-family="MyriadPro-Regular, Myriad Pro"><tspan x="0" y="0">O</tspan></text>
    <text id="N-3" data-name="N" transform="translate(65.338 98.799) rotate(170.64)" font-size="8" font-family="MyriadPro-Regular, Myriad Pro"><tspan x="0" y="0">N</tspan></text>
    <text id="S" transform="matrix(-1, 0.016, -0.016, -1, 56.942, 101.049)" font-size="7" font-family="MyriadPro-Regular, Myriad Pro"><tspan x="0" y="0">S</tspan></text>
    <text id="U" transform="translate(50.402 100.165) rotate(-171.09)" font-size="8" font-family="MyriadPro-Regular, Myriad Pro"><tspan x="0" y="0">U</tspan></text>
    <text id="L-3" data-name="L" transform="translate(41.771 99.71) rotate(-162.01)" font-size="7" font-family="MyriadPro-Regular, Myriad Pro"><tspan x="0" y="0">L</tspan></text>
    <text id="T-3" data-name="T" transform="matrix(-0.912, -0.411, 0.411, -0.912, 36.866, 98.18)" font-size="7" font-family="MyriadPro-Regular, Myriad Pro"><tspan x="0" y="0">T</tspan></text>
    <text id="N-4" data-name="N" transform="translate(28.576 93.018) rotate(-142.44)" font-size="8" font-family="MyriadPro-Regular, Myriad Pro"><tspan x="0" y="0">N</tspan></text>
    <text id="G-2" data-name="G" transform="translate(21.778 87.756) rotate(-132.158)" font-size="8" font-family="MyriadPro-Regular, Myriad Pro"><tspan x="0" y="0">G</tspan></text>
    <text id="I-2" data-name="I" transform="matrix(-0.573, -0.82, 0.82, -0.573, 15.499, 82.018)" font-size="6" font-family="MyriadPro-Regular, Myriad Pro"><tspan x="0" y="0">I</tspan></text>
    <text id="R" transform="translate(14.406 78.87) rotate(-118.69)" font-size="8" font-family="MyriadPro-Regular, Myriad Pro"><tspan x="0" y="0">R</tspan></text>
    <text id="M" transform="translate(11.827 72.378) rotate(-108.072)" font-size="9" font-family="MyriadPro-Regular, Myriad Pro"><tspan x="0" y="0">M</tspan></text>
    <text id="D-2" data-name="D" transform="translate(7.327 59.949) rotate(-92.862)" font-size="8" font-family="MyriadPro-Regular, Myriad Pro"><tspan x="0" y="0">D</tspan></text>
    <text id="E-7" data-name="E" transform="translate(6.047 51.11) rotate(-83.34)" font-size="7" font-family="MyriadPro-Regular, Myriad Pro"><tspan x="0" y="0">E</tspan></text>
  </g>
</svg>
