<svg xmlns="http://www.w3.org/2000/svg" width="105.651" height="105.555" viewBox="0 0 105.651 105.555">
  <g id="_244_7" data-name="244/7" transform="matrix(0.545, -0.839, 0.839, 0.545, -20.078, 68.277)">
    <g id="circle" transform="translate(0 0)">
      <text id="I" transform="translate(7.251 38.298) rotate(-70.6)" fill="#161821" font-size="6" font-family="MyriadPro-Regular, Myriad Pro"><tspan x="0" y="0">I</tspan></text>
      <text id="N" transform="matrix(0.451, -0.892, 0.892, 0.451, 10.007, 35.98)" fill="#161821" font-size="9" font-family="MyriadPro-Regular, Myriad Pro"><tspan x="0" y="0">N</tspan></text>
      <text id="G" transform="matrix(0.604, -0.797, 0.797, 0.604, 13.818, 28.433)" fill="#161821" font-size="9" font-family="MyriadPro-Regular, Myriad Pro"><tspan x="0" y="0">G</tspan></text>
      <text id="L" transform="matrix(0.722, -0.692, 0.692, 0.722, 18.202, 21.162)" fill="#161821" font-size="8" font-family="MyriadPro-Regular, Myriad Pro"><tspan x="0" y="0">L</tspan></text>
      <text id="E" transform="translate(22.671 16.857) rotate(-36.19)" fill="#161821" font-size="8" font-family="MyriadPro-Regular, Myriad Pro"><tspan x="0" y="0">E</tspan></text>
      <text id="T" transform="translate(28.067 12.945) rotate(-27.99)" fill="#161821" font-size="8" font-family="MyriadPro-Regular, Myriad Pro"><tspan x="0" y="0">T</tspan></text>
      <text id="E-2" data-name="E" transform="translate(33.846 9.894) rotate(-19.98)" fill="#161821" font-size="8" font-family="MyriadPro-Regular, Myriad Pro"><tspan x="0" y="0">E</tspan></text>
      <text id="C" transform="translate(40.129 8.633) rotate(-11.29)" fill="#161821" font-size="9" font-family="MyriadPro-Regular, Myriad Pro"><tspan x="0" y="0">C</tspan></text>
      <text id="H" transform="matrix(1, -0.024, 0.024, 1, 47.449, 7.144)" fill="#161821" font-size="9" font-family="MyriadPro-Regular, Myriad Pro"><tspan x="0" y="0">H</tspan></text>
      <text id="W" transform="translate(58.129 7.022) rotate(13.4)" fill="#161821" font-size="9" font-family="MyriadPro-Regular, Myriad Pro"><tspan x="0" y="0">W</tspan></text>
      <text id="E-3" data-name="E" transform="matrix(0.912, 0.411, -0.411, 0.912, 69.004, 8.828)" fill="#161821" font-size="8" font-family="MyriadPro-Regular, Myriad Pro"><tspan x="0" y="0">E</tspan></text>
      <text id="B" transform="matrix(0.843, 0.538, -0.538, 0.843, 74.37, 12.319)" fill="#161821" font-size="9" font-family="MyriadPro-Regular, Myriad Pro"><tspan x="0" y="0">B</tspan></text>
      <text id="D" transform="translate(82.436 17.747) rotate(45.64)" fill="#161821" font-size="9" font-family="MyriadPro-Regular, Myriad Pro"><tspan x="0" y="0">D</tspan></text>
      <text id="E-4" data-name="E" transform="matrix(0.575, 0.818, -0.818, 0.575, 89.15, 23.333)" fill="#161821" font-size="8" font-family="MyriadPro-Regular, Myriad Pro"><tspan x="0" y="0">E</tspan></text>
      <text id="V" transform="matrix(0.451, 0.892, -0.892, 0.451, 92.048, 29.158)" fill="#161821" font-size="9" font-family="MyriadPro-Regular, Myriad Pro"><tspan x="0" y="0">V</tspan></text>
      <text id="E-5" data-name="E" transform="translate(96.173 35.308) rotate(71.928)" fill="#161821" font-size="8" font-family="MyriadPro-Regular, Myriad Pro"><tspan x="0" y="0">E</tspan></text>
      <text id="L-2" data-name="L" transform="matrix(0.177, 0.984, -0.984, 0.177, 98.148, 41.433)" fill="#161821" font-size="8" font-family="MyriadPro-Regular, Myriad Pro"><tspan x="0" y="0">L</tspan></text>
      <text id="O" transform="translate(98.283 47.087) rotate(88.46)" fill="#161821" font-size="9" font-family="MyriadPro-Regular, Myriad Pro"><tspan x="0" y="0">O</tspan></text>
      <text id="P" transform="matrix(-0.142, 0.99, -0.99, -0.142, 98.428, 55.927)" fill="#161821" font-size="9" font-family="MyriadPro-Regular, Myriad Pro"><tspan x="0" y="0">P</tspan></text>
      <text id="M" transform="matrix(-0.319, 0.948, -0.948, -0.319, 97.633, 62.614)" fill="#161821" font-size="9" font-family="MyriadPro-Regular, Myriad Pro"><tspan x="0" y="0">M</tspan></text>
      <text id="E-6" data-name="E" transform="translate(95.006 72.797) rotate(119.389)" fill="#161821" font-size="8" font-family="MyriadPro-Regular, Myriad Pro"><tspan x="0" y="0">E</tspan></text>
      <text id="N-2" data-name="N" transform="matrix(-0.622, 0.783, -0.783, -0.622, 91.092, 77.883)" fill="#161821" font-size="9" font-family="MyriadPro-Regular, Myriad Pro"><tspan x="0" y="0">N</tspan></text>
      <text id="T-2" data-name="T" transform="translate(86.439 85.165) rotate(137.842)" fill="#161821" font-size="8" font-family="MyriadPro-Regular, Myriad Pro"><tspan x="0" y="0">T</tspan></text>
      <text id="C-2" data-name="C" transform="translate(78.869 90.36) rotate(149.8)" fill="#161821" font-size="9" font-family="MyriadPro-Regular, Myriad Pro"><tspan x="0" y="0">C</tspan></text>
      <text id="O-2" data-name="O" transform="matrix(-0.938, 0.347, -0.347, -0.938, 72.679, 94.053)" fill="#161821" font-size="9" font-family="MyriadPro-Regular, Myriad Pro"><tspan x="0" y="0">O</tspan></text>
      <text id="N-3" data-name="N" transform="translate(64.342 97.1) rotate(170.64)" fill="#161821" font-size="9" font-family="MyriadPro-Regular, Myriad Pro"><tspan x="0" y="0">N</tspan></text>
      <text id="S" transform="matrix(-1, 0.016, -0.016, -1, 56.064, 99.341)" fill="#161821" font-size="8" font-family="MyriadPro-Regular, Myriad Pro"><tspan x="0" y="0">S</tspan></text>
      <text id="U" transform="translate(49.671 98.47) rotate(-171.09)" fill="#161821" font-size="9" font-family="MyriadPro-Regular, Myriad Pro"><tspan x="0" y="0">U</tspan></text>
      <text id="L-3" data-name="L" transform="translate(41.165 98.046) rotate(-162.01)" fill="#161821" font-size="8" font-family="MyriadPro-Regular, Myriad Pro"><tspan x="0" y="0">L</tspan></text>
      <text id="T-3" data-name="T" transform="matrix(-0.912, -0.411, 0.411, -0.912, 36.346, 96.551)" fill="#161821" font-size="8" font-family="MyriadPro-Regular, Myriad Pro"><tspan x="0" y="0">T</tspan></text>
      <text id="I-2" data-name="I" transform="translate(29.977 94.644) rotate(-149.331)" fill="#161821" font-size="6" font-family="MyriadPro-Regular, Myriad Pro"><tspan x="0" y="0">I</tspan></text>
      <text id="N-4" data-name="N" transform="translate(28.223 91.493) rotate(-142.44)" fill="#161821" font-size="9" font-family="MyriadPro-Regular, Myriad Pro"><tspan x="0" y="0">N</tspan></text>
      <text id="G-2" data-name="G" transform="translate(21.534 86.333) rotate(-132.158)" fill="#161821" font-size="9" font-family="MyriadPro-Regular, Myriad Pro"><tspan x="0" y="0">G</tspan></text>
      <text id="I-3" data-name="I" transform="matrix(-0.573, -0.82, 0.82, -0.573, 14.495, 81.245)" fill="#161821" font-size="6" font-family="MyriadPro-Regular, Myriad Pro"><tspan x="0" y="0">I</tspan></text>
      <text id="R" transform="translate(14.272 77.608) rotate(-118.69)" fill="#161821" font-size="9" font-family="MyriadPro-Regular, Myriad Pro"><tspan x="0" y="0">R</tspan></text>
      <text id="M-2" data-name="M" transform="translate(10.804 71.573) rotate(-108.072)" fill="#161821" font-size="9" font-family="MyriadPro-Regular, Myriad Pro"><tspan x="0" y="0">M</tspan></text>
      <text id="D-2" data-name="D" transform="translate(7.291 59.05) rotate(-92.862)" fill="#161821" font-size="9" font-family="MyriadPro-Regular, Myriad Pro"><tspan x="0" y="0">D</tspan></text>
      <text id="E-7" data-name="E" transform="translate(6.004 50.347) rotate(-83.34)" fill="#161821" font-size="8" font-family="MyriadPro-Regular, Myriad Pro"><tspan x="0" y="0">E</tspan></text>
    </g>
  </g>
</svg>
