<svg xmlns="http://www.w3.org/2000/svg" width="491.735" height="181.709" viewBox="0 0 491.735 181.709"><defs><style>.a{fill:#0d0d0f;}</style></defs><path class="a" d="M57.275,2.583c17.632,0,30.21-8.2,35.825-21.675h2.021V0h32.793V-123.647H95.122v71.426c0,16.733-8.76,27.627-24.932,27.627-15.5,0-22.124-9.1-22.124-26.616v-72.437H15.273v79.961C15.273-14.263,29.536,2.583,57.275,2.583ZM162.521,0h32.793V-170.928H162.521Zm67.4,0h32.793V-69.18c0-17.52,11.792-28.188,30.435-28.188A68.2,68.2,0,0,1,308.2-95.459V-124.1a49.109,49.109,0,0,0-12.241-1.572c-16.06,0-27.29,7.861-31.221,21.226h-2.021v-19.2H229.92ZM347.407-142.627a18.31,18.31,0,0,0,18.418-18.193,18.333,18.333,0,0,0-18.418-18.306,18.429,18.429,0,0,0-18.53,18.306A18.407,18.407,0,0,0,347.407-142.627ZM330.9,0h32.793V-123.647H330.9ZM451.866,2.583c32.231,0,51.548-17.295,54.917-44.248l.112-.674H476.573l-.225.449c-2.92,12.354-10.894,18.755-24.37,18.755-17.52,0-27.29-13.813-27.29-38.857v-.225c0-24.707,9.658-38.408,27.29-38.408,14.038,0,22.236,7.861,24.37,19.878l.112.225h30.547v-.337c-2.92-27.627-22.349-45.483-55.142-45.483-38.745,0-60.532,23.472-60.532,64.126v.225C391.334-20.889,413.234,2.583,451.866,2.583Z" transform="translate(-15.273 179.126)"/></svg>