<svg xmlns="http://www.w3.org/2000/svg" width="325.614" height="124.036" viewBox="0 0 325.614 124.036"><defs><style>.a{fill:#0d0d0f;}</style></defs><path class="a" d="M39.1,1.763c12.036,0,20.622-5.6,24.455-14.8h1.38V0H87.316V-84.4H64.931v48.756c0,11.422-5.979,18.858-17.019,18.858-10.579,0-15.1-6.209-15.1-18.168V-84.4H10.426v54.582C10.426-9.736,20.162,1.763,39.1,1.763ZM108.426,0h22.385V-116.677H108.426Zm43.5,0h22.385V-47.223c0-11.959,8.049-19.242,20.775-19.242a46.551,46.551,0,0,1,10.272,1.3V-84.709A33.522,33.522,0,0,0,197-85.783c-10.962,0-18.628,5.366-21.312,14.489h-1.38V-84.4H151.921Zm77.686-97.358a12.5,12.5,0,0,0,12.572-12.419,12.514,12.514,0,0,0-12.572-12.5,12.58,12.58,0,0,0-12.649,12.5A12.565,12.565,0,0,0,229.607-97.358ZM218.338,0h22.385V-84.4H218.338ZM298.4,1.763c22,0,35.187-11.806,37.487-30.2l.077-.46h-20.7l-.153.307c-1.993,8.433-7.436,12.8-16.635,12.8-11.959,0-18.628-9.429-18.628-26.524v-.153c0-16.865,6.593-26.218,18.628-26.218,9.583,0,15.179,5.366,16.635,13.569l.077.153H336.04v-.23c-1.993-18.858-15.255-31.047-37.64-31.047-26.448,0-41.32,16.022-41.32,43.773v.153C257.08-14.259,272.029,1.763,298.4,1.763Z" transform="translate(-10.426 122.273)"/></svg>