<svg xmlns="http://www.w3.org/2000/svg" width="86.916" height="90.467" viewBox="0 0 86.916 90.467"><defs><style>.a{fill:#fcf6f4;}</style></defs><path class="a" d="M18798.916-2697.534H18732a9.936,9.936,0,0,1-7.07-2.928,9.945,9.945,0,0,1-2.928-7.074V-2778a10.012,10.012,0,0,1,10-10h66.916a9.933,9.933,0,0,1,7.072,2.93,9.936,9.936,0,0,1,2.93,7.072v70.462a9.936,9.936,0,0,1-2.93,7.074A9.93,9.93,0,0,1,18798.916-2697.534ZM18743-2767h0v31.287c0,5.786,1.395,10.285,4.148,13.373,2.8,3.142,6.936,4.735,12.287,4.735a16.453,16.453,0,0,0,8.775-2.264,13.016,13.016,0,0,0,5.244-6.218h.795v7.472h12.83V-2767h-12.83v27.949a11.728,11.728,0,0,1-2.508,7.86,8.183,8.183,0,0,1-3.059,2.181,10.9,10.9,0,0,1-4.191.768c-3.016,0-5.176-.862-6.6-2.636-1.383-1.718-2.055-4.261-2.055-7.777V-2767H18743Z" transform="translate(-18722.002 2788.001)"/></svg>